<?xml version="1.0" encoding="UTF-8" standalone="no"?>
<!DOCTYPE svg PUBLIC "-//W3C//DTD SVG 1.1//EN" "http://www.w3.org/Graphics/SVG/1.1/DTD/svg11.dtd">
<svg width="100%" height="100%" viewBox="0 0 1440 1440" version="1.1" xmlns="http://www.w3.org/2000/svg" xmlns:xlink="http://www.w3.org/1999/xlink" xml:space="preserve" xmlns:serif="http://www.serif.com/" style="fill-rule:evenodd;clip-rule:evenodd;stroke-linejoin:round;stroke-miterlimit:2;">
    <g transform="matrix(1.33333,0,0,1.33333,0,0)">
        <g transform="matrix(3.22359,0,0,3.79351,-1445.58,-2459.99)">
            <ellipse cx="615.951" cy="790.821" rx="155.106" ry="131.804"/>
        </g>
        <g transform="matrix(33.0684,-4.62349,4.62349,33.0684,-9586.26,-10958.7)">
            <g transform="matrix(29.8602,0,0,29.8602,238.605,389.021)">
                <path d="M0.148,0.008C0.117,0.008 0.091,-0.002 0.068,-0.021C0.046,-0.04 0.035,-0.071 0.035,-0.114C0.035,-0.145 0.041,-0.178 0.052,-0.212C0.063,-0.246 0.079,-0.278 0.1,-0.307C0.121,-0.336 0.147,-0.36 0.177,-0.379C0.207,-0.398 0.241,-0.407 0.278,-0.407C0.299,-0.407 0.317,-0.404 0.332,-0.398C0.347,-0.393 0.36,-0.385 0.369,-0.375L0.463,-0.396C0.5,-0.405 0.538,-0.413 0.577,-0.42C0.616,-0.428 0.656,-0.432 0.695,-0.432C0.717,-0.432 0.739,-0.43 0.76,-0.427C0.782,-0.424 0.804,-0.418 0.825,-0.411C0.851,-0.402 0.872,-0.389 0.888,-0.371C0.904,-0.353 0.912,-0.336 0.913,-0.32C0.916,-0.289 0.909,-0.263 0.893,-0.243C0.878,-0.223 0.858,-0.208 0.833,-0.199C0.808,-0.19 0.783,-0.185 0.757,-0.185L0.742,-0.185C0.737,-0.186 0.733,-0.186 0.728,-0.187C0.723,-0.187 0.721,-0.189 0.721,-0.192C0.721,-0.197 0.724,-0.199 0.73,-0.199C0.748,-0.199 0.764,-0.201 0.778,-0.205C0.793,-0.209 0.805,-0.214 0.816,-0.221C0.831,-0.23 0.841,-0.24 0.847,-0.251C0.854,-0.262 0.857,-0.273 0.857,-0.284C0.857,-0.303 0.849,-0.321 0.834,-0.338C0.819,-0.355 0.802,-0.367 0.781,-0.376C0.762,-0.384 0.742,-0.39 0.721,-0.393C0.701,-0.396 0.681,-0.398 0.66,-0.398C0.627,-0.398 0.595,-0.395 0.562,-0.389C0.53,-0.383 0.499,-0.377 0.47,-0.37C0.457,-0.367 0.443,-0.364 0.428,-0.361C0.414,-0.358 0.4,-0.354 0.385,-0.351C0.389,-0.342 0.392,-0.333 0.393,-0.323C0.395,-0.314 0.396,-0.303 0.396,-0.292C0.396,-0.261 0.39,-0.229 0.378,-0.195C0.367,-0.161 0.354,-0.133 0.341,-0.11C0.322,-0.077 0.297,-0.049 0.266,-0.026C0.235,-0.003 0.196,0.008 0.148,0.008ZM0.186,-0.03C0.205,-0.03 0.223,-0.037 0.24,-0.052C0.257,-0.067 0.272,-0.085 0.285,-0.106C0.299,-0.127 0.31,-0.147 0.318,-0.164C0.328,-0.185 0.336,-0.206 0.342,-0.229C0.348,-0.252 0.351,-0.274 0.351,-0.293C0.351,-0.309 0.349,-0.322 0.345,-0.333C0.344,-0.335 0.343,-0.338 0.34,-0.342C0.328,-0.339 0.316,-0.337 0.305,-0.336C0.294,-0.335 0.284,-0.335 0.274,-0.335L0.259,-0.335C0.254,-0.336 0.25,-0.336 0.245,-0.337C0.228,-0.322 0.212,-0.304 0.198,-0.282C0.185,-0.261 0.174,-0.242 0.167,-0.227C0.158,-0.21 0.15,-0.189 0.143,-0.164C0.136,-0.139 0.132,-0.116 0.132,-0.095C0.132,-0.076 0.136,-0.061 0.143,-0.048C0.151,-0.036 0.165,-0.03 0.186,-0.03Z" style="fill:white;fill-rule:nonzero;"/>
            </g>
            <g transform="matrix(29.8602,0,0,29.8602,238.605,389.021)">
            </g>
            <g transform="matrix(29.8602,0,0,29.8602,252.012,389.021)">
                <path d="M-0.238,0.06C-0.257,0.053 -0.267,0.038 -0.267,0.015C-0.267,0 -0.263,-0.016 -0.256,-0.035C-0.252,-0.044 -0.247,-0.048 -0.242,-0.048C-0.239,-0.048 -0.238,-0.046 -0.238,-0.041C-0.238,-0.037 -0.238,-0.034 -0.239,-0.031C-0.241,-0.025 -0.242,-0.019 -0.242,-0.013C-0.242,-0.002 -0.239,0.006 -0.232,0.012C-0.226,0.019 -0.219,0.022 -0.21,0.022C-0.199,0.022 -0.189,0.018 -0.179,0.011C-0.168,0.004 -0.157,-0.006 -0.144,-0.017C-0.132,-0.028 -0.122,-0.039 -0.113,-0.049C-0.083,-0.084 -0.056,-0.121 -0.031,-0.16C-0.028,-0.166 -0.02,-0.177 -0.008,-0.193C0.003,-0.21 0.017,-0.229 0.033,-0.25C0.05,-0.271 0.066,-0.292 0.083,-0.312C0.1,-0.333 0.115,-0.35 0.128,-0.364C0.137,-0.376 0.15,-0.387 0.169,-0.398C0.192,-0.411 0.22,-0.417 0.251,-0.417C0.272,-0.417 0.29,-0.414 0.306,-0.409C0.318,-0.405 0.328,-0.398 0.337,-0.389C0.346,-0.38 0.351,-0.369 0.351,-0.354C0.351,-0.337 0.346,-0.321 0.335,-0.306C0.325,-0.291 0.31,-0.282 0.291,-0.279C0.279,-0.278 0.268,-0.28 0.259,-0.285C0.25,-0.291 0.246,-0.302 0.249,-0.318C0.267,-0.322 0.28,-0.329 0.288,-0.34C0.292,-0.346 0.294,-0.352 0.294,-0.358C0.294,-0.369 0.289,-0.377 0.28,-0.381C0.271,-0.386 0.263,-0.388 0.255,-0.388C0.245,-0.388 0.235,-0.387 0.226,-0.384C0.217,-0.382 0.209,-0.378 0.202,-0.373C0.187,-0.36 0.18,-0.346 0.18,-0.329C0.18,-0.326 0.18,-0.323 0.181,-0.32C0.182,-0.317 0.183,-0.313 0.184,-0.31C0.187,-0.301 0.192,-0.293 0.199,-0.286C0.206,-0.279 0.212,-0.272 0.219,-0.267C0.236,-0.255 0.253,-0.242 0.27,-0.228C0.288,-0.214 0.301,-0.197 0.31,-0.177C0.317,-0.163 0.32,-0.149 0.32,-0.134C0.32,-0.114 0.315,-0.096 0.305,-0.079C0.295,-0.063 0.284,-0.05 0.271,-0.041C0.291,-0.05 0.31,-0.064 0.329,-0.083C0.348,-0.102 0.365,-0.123 0.38,-0.145C0.395,-0.168 0.408,-0.187 0.418,-0.204C0.423,-0.212 0.427,-0.22 0.431,-0.229C0.436,-0.238 0.44,-0.246 0.445,-0.253C0.447,-0.258 0.449,-0.26 0.451,-0.26C0.454,-0.26 0.456,-0.255 0.456,-0.244C0.456,-0.238 0.455,-0.231 0.453,-0.224C0.452,-0.217 0.449,-0.21 0.445,-0.203C0.435,-0.186 0.424,-0.169 0.413,-0.15C0.402,-0.132 0.388,-0.113 0.373,-0.093C0.346,-0.056 0.314,-0.029 0.279,-0.012C0.244,0.005 0.203,0.015 0.156,0.017C0.133,0.018 0.112,0.015 0.091,0.009C0.071,0.004 0.055,-0.004 0.042,-0.015C0.027,-0.028 0.02,-0.044 0.02,-0.065C0.02,-0.079 0.024,-0.093 0.033,-0.107C0.042,-0.122 0.055,-0.129 0.072,-0.129C0.079,-0.129 0.086,-0.127 0.092,-0.124C0.098,-0.121 0.102,-0.116 0.104,-0.111C0.103,-0.11 0.102,-0.108 0.099,-0.104C0.096,-0.101 0.095,-0.098 0.094,-0.097C0.088,-0.085 0.085,-0.074 0.085,-0.064C0.085,-0.05 0.09,-0.039 0.1,-0.03C0.111,-0.021 0.124,-0.017 0.141,-0.017C0.163,-0.018 0.182,-0.025 0.198,-0.04C0.215,-0.055 0.223,-0.073 0.223,-0.094C0.223,-0.106 0.22,-0.117 0.215,-0.128C0.206,-0.146 0.195,-0.161 0.181,-0.174C0.167,-0.187 0.153,-0.201 0.14,-0.214C0.127,-0.227 0.118,-0.243 0.112,-0.262C0.11,-0.269 0.109,-0.277 0.108,-0.284C0.107,-0.292 0.107,-0.3 0.108,-0.307C0.09,-0.284 0.071,-0.259 0.05,-0.23C0.029,-0.201 0.008,-0.172 -0.013,-0.143C-0.034,-0.114 -0.054,-0.087 -0.072,-0.062C-0.091,-0.038 -0.106,-0.018 -0.119,-0.003C-0.138,0.02 -0.155,0.037 -0.172,0.048C-0.189,0.059 -0.204,0.064 -0.218,0.064C-0.221,0.064 -0.225,0.063 -0.228,0.062C-0.231,0.061 -0.235,0.061 -0.238,0.06Z" style="fill:white;fill-rule:nonzero;"/>
            </g>
            <g transform="matrix(29.8602,0,0,29.8602,252.012,389.021)">
            </g>
            <g transform="matrix(29.8602,0,0,29.8602,263.15,389.021)">
            </g>
        </g>
    </g>
</svg>
